<?xml version="1.0" encoding="utf-8"?>
<!-- Generator: Adobe Illustrator 16.0.0, SVG Export Plug-In . SVG Version: 6.00 Build 0)  -->
<!DOCTYPE svg PUBLIC "-//W3C//DTD SVG 1.1//EN" "http://www.w3.org/Graphics/SVG/1.1/DTD/svg11.dtd">
<svg version="1.1" id="Layer_1" xmlns="http://www.w3.org/2000/svg" xmlns:xlink="http://www.w3.org/1999/xlink" x="0px" y="0px"
	 width="87px" height="30px" viewBox="0 0 87 30" enable-background="new 0 0 87 30" xml:space="preserve">
<g>
	<g>
		<linearGradient id="SVGID_1_" gradientUnits="userSpaceOnUse" x1="10.7275" y1="1.3853" x2="10.7275" y2="29.5493">
			<stop  offset="0" style="stop-color:#FF4E30"/>
			<stop  offset="0.2659" style="stop-color:#FF472F"/>
			<stop  offset="0.6379" style="stop-color:#FF352A"/>
			<stop  offset="1" style="stop-color:#FF1D25"/>
		</linearGradient>
		<path fill-rule="evenodd" clip-rule="evenodd" fill="url(#SVGID_1_)" d="M21.455,29.549c-2.368,0-4.566,0-6.717,0
			c-0.442-2.159-0.863-4.271-1.313-6.377c-0.103-0.475-0.286-0.938-0.475-1.389c-0.551-1.313-1.499-2.001-2.978-1.936
			C8.8,19.9,7.623,19.858,6.384,19.858c0,3.234,0,6.418,0,9.664c-2.155,0-4.247,0-6.384,0c0-9.336,0-18.665,0-28.058
			c0.167-0.02,0.352-0.06,0.538-0.06c4.004,0,8.011-0.066,12.013,0.048c1.443,0.041,2.936,0.345,4.297,0.833
			c2.63,0.943,4.04,2.981,4.223,5.75c0.088,1.333,0.052,2.718-0.218,4.02c-0.534,2.591-2.207,4.257-4.879,5.087
			c2.866,0.851,3.712,3.129,4.249,5.556C20.717,24.939,21.043,27.219,21.455,29.549z M6.37,14.341c1.679,0,3.308,0.145,4.9-0.035
			c2.188-0.248,3.077-1.373,3.217-3.598c0.007-0.122,0.042-0.244,0.042-0.365c0.008-2.288-0.602-3.452-3.019-3.479
			C9.891,6.845,8.27,6.855,6.647,6.857c-0.088,0-0.176,0.049-0.277,0.08C6.37,9.417,6.37,11.869,6.37,14.341z"/>
		<linearGradient id="SVGID_2_" gradientUnits="userSpaceOnUse" x1="33.9253" y1="0.9668" x2="33.9253" y2="30.0005">
			<stop  offset="0" style="stop-color:#FF4E30"/>
			<stop  offset="0.2659" style="stop-color:#FF472F"/>
			<stop  offset="0.6379" style="stop-color:#FF352A"/>
			<stop  offset="1" style="stop-color:#FF1D25"/>
		</linearGradient>
		<path fill-rule="evenodd" clip-rule="evenodd" fill="url(#SVGID_2_)" d="M39.404,18.76c-1.657,0-3.222,0-4.839,0
			c0-1.714,0-3.368,0-5.067c3.535,0,7.057,0,10.642,0c0.013,0.25,0.033,0.489,0.033,0.728c0.002,4.349-0.008,8.698,0.013,13.046
			c0.003,0.546-0.134,0.805-0.686,0.992c-4.48,1.529-9.051,2.016-13.693,1.029c-4.444-0.946-7.039-3.816-7.799-8.258
			c-0.672-3.928-0.642-7.887,0.157-11.792c0.957-4.676,3.902-7.384,8.612-8.163c3.07-0.508,6.108-0.4,9.112,0.434
			c1.485,0.414,2.826,1.1,4.024,2.2c-1.214,1.484-2.423,2.96-3.684,4.503c-1.23-0.988-2.625-1.617-4.157-1.719
			c-1.428-0.097-2.893-0.101-4.305,0.109c-1.627,0.241-2.651,1.365-2.99,2.972c-0.237,1.123-0.422,2.281-0.427,3.424
			c-0.009,2.352-0.026,4.72,0.223,7.056c0.346,3.22,1.704,4.428,4.964,4.553c1.43,0.055,2.875-0.22,4.307-0.387
			c0.181-0.021,0.467-0.302,0.47-0.465C39.417,22.261,39.404,20.567,39.404,18.76z"/>
		<linearGradient id="SVGID_3_" gradientUnits="userSpaceOnUse" x1="73.6826" y1="1.3843" x2="73.6826" y2="29.6001">
			<stop  offset="0" style="stop-color:#FF4E30"/>
			<stop  offset="0.2659" style="stop-color:#FF472F"/>
			<stop  offset="0.6379" style="stop-color:#FF352A"/>
			<stop  offset="1" style="stop-color:#FF1D25"/>
		</linearGradient>
		<path fill-rule="evenodd" clip-rule="evenodd" fill="url(#SVGID_3_)" d="M60.77,29.588c0.782-2.431,1.53-4.76,2.283-7.088
			c2.2-6.788,4.409-13.571,6.589-20.364c0.18-0.56,0.406-0.751,1.016-0.751c2.113,0,4.401,0,6.337,0.011
			c0.387,0.002,0.615,0.07,0.749,0.491c2.93,9.128,5.877,18.252,8.818,27.38c0.021,0.066,0.017,0.143,0.034,0.322
			c-0.767,0-1.512,0-2.258,0c-1.277,0-2.556-0.018-3.832,0.009c-0.439,0.01-0.645-0.113-0.765-0.562
			c-0.397-1.492-0.856-2.969-1.267-4.458c-0.116-0.422-0.312-0.578-0.766-0.574c-2.725,0.021-5.454,0.024-8.18-0.002
			c-0.476-0.004-0.63,0.198-0.744,0.598c-0.414,1.463-0.87,2.915-1.271,4.38c-0.124,0.451-0.307,0.63-0.797,0.622
			C64.778,29.569,62.838,29.588,60.77,29.588z M76.951,18.934c-1.088-3.674-2.148-7.248-3.208-10.823
			c-0.052-0.001-0.102-0.002-0.153-0.003c-1.072,3.591-2.146,7.183-3.234,10.826C72.59,18.934,74.697,18.934,76.951,18.934z"/>
		<linearGradient id="SVGID_4_" gradientUnits="userSpaceOnUse" x1="56.1758" y1="1.4561" x2="56.1758" y2="29.5405">
			<stop  offset="0" style="stop-color:#FF4E30"/>
			<stop  offset="0.2659" style="stop-color:#FF472F"/>
			<stop  offset="0.6379" style="stop-color:#FF352A"/>
			<stop  offset="1" style="stop-color:#FF1D25"/>
		</linearGradient>
		<path fill-rule="evenodd" clip-rule="evenodd" fill="url(#SVGID_4_)" d="M64.609,7.037c-3.515,0-6.971,0-10.486,0
			c0,2.044,0,4.044,0,6.134c3.169,0,6.346,0,9.572,0c-0.204,0.641-1.246,3.792-1.812,5.627c-3.189,0-4.536,0-7.78,0
			c0,3.603,0,7.148,0,10.741c-2.159,0-4.233,0-6.36,0c0-9.343,0-18.686,0-28.084c5.603,0,11.211,0,16.867,0
			C64.609,3.283,64.609,5.111,64.609,7.037z"/>
	</g>
</g>
</svg>
